<svg width="21" height="35" viewBox="0 0 21 35" fill="none" xmlns="http://www.w3.org/2000/svg">
<mask id="path-1-outside-1_216_938" maskUnits="userSpaceOnUse" x="-0.185606" y="-4.03897" width="33.5143" height="42.3414" fill="black">
<rect fill="white" x="-0.185606" y="-4.03897" width="33.5143" height="42.3414"/>
<path fill-rule="evenodd" clip-rule="evenodd" d="M1.58942 16.4781C1.19266 16.8391 1.19266 17.4243 1.58942 17.7853C1.60061 17.7955 1.612 17.8054 1.62357 17.815L18.1145 32.8174C18.5113 33.1783 19.1546 33.1783 19.5513 32.8174C19.9481 32.4564 19.9481 31.8712 19.5513 31.5103L3.74541 17.131L19.5497 2.75327C19.9464 2.39232 19.9464 1.8071 19.5497 1.44614C19.1529 1.08519 18.5096 1.08519 18.1129 1.44614L1.58942 16.4781Z"/>
</mask>
<path fill-rule="evenodd" clip-rule="evenodd" d="M1.58942 16.4781C1.19266 16.8391 1.19266 17.4243 1.58942 17.7853C1.60061 17.7955 1.612 17.8054 1.62357 17.815L18.1145 32.8174C18.5113 33.1783 19.1546 33.1783 19.5513 32.8174C19.9481 32.4564 19.9481 31.8712 19.5513 31.5103L3.74541 17.131L19.5497 2.75327C19.9464 2.39232 19.9464 1.8071 19.5497 1.44614C19.1529 1.08519 18.5096 1.08519 18.1129 1.44614L1.58942 16.4781Z" fill="#4E4E4E"/>
<path d="M1.58942 17.7853L2.10231 16.8854L2.10231 16.8854L1.58942 17.7853ZM1.58942 16.4781L1.07653 15.5783L1.58942 16.4781ZM1.62357 17.815L2.13646 16.9151L2.12124 16.9012L2.10556 16.8882L1.62357 17.815ZM18.1145 32.8174L18.6274 31.9175L18.6274 31.9175L18.1145 32.8174ZM19.5513 32.8174L20.0642 33.7172L20.0642 33.7172L19.5513 32.8174ZM19.5513 31.5103L20.0642 30.6104L19.5513 31.5103ZM3.74541 17.131L3.23253 16.2312L2.24338 17.131L3.23253 18.0309L3.74541 17.131ZM19.5497 2.75327L20.0626 3.65313L20.0626 3.65313L19.5497 2.75327ZM19.5497 1.44614L20.0626 0.546278L20.0626 0.546277L19.5497 1.44614ZM18.1129 1.44614L18.6257 2.346L18.6257 2.346L18.1129 1.44614ZM2.10231 16.8854C2.0892 16.8735 2.16956 16.9485 2.16956 17.1317C2.16956 17.3149 2.0892 17.3899 2.10231 17.378L1.07653 15.5783C0.692877 15.9273 0.414138 16.4754 0.414138 17.1317C0.414138 17.788 0.692877 18.3361 1.07653 18.6851L2.10231 16.8854ZM2.10556 16.8882C2.10429 16.8872 2.10321 16.8862 2.10231 16.8854L1.07653 18.6851C1.09802 18.7047 1.11971 18.7235 1.14158 18.7417L2.10556 16.8882ZM18.6274 31.9175L2.13646 16.9151L1.11068 18.7148L17.6016 33.7172L18.6274 31.9175ZM19.0384 31.9175C19.0161 31.9378 18.9447 31.9792 18.8329 31.9792C18.7212 31.9792 18.6497 31.9378 18.6274 31.9175L17.6016 33.7172C17.9761 34.0579 18.4247 34.197 18.8329 34.197C19.2412 34.197 19.6898 34.0579 20.0642 33.7172L19.0384 31.9175ZM19.0384 32.4101C19.0516 32.422 18.9712 32.347 18.9712 32.1638C18.9712 31.9806 19.0516 31.9056 19.0384 31.9175L20.0642 33.7172C20.4479 33.3682 20.7266 32.8201 20.7266 32.1638C20.7266 31.5075 20.4479 30.9594 20.0642 30.6104L19.0384 32.4101ZM3.23253 18.0309L19.0384 32.4101L20.0642 30.6104L4.2583 16.2312L3.23253 18.0309ZM19.0368 1.85341L3.23253 16.2312L4.2583 18.0309L20.0626 3.65313L19.0368 1.85341ZM19.0368 2.346C19.0499 2.35793 18.9695 2.28289 18.9695 2.09971C18.9695 1.91652 19.0499 1.84148 19.0368 1.85341L20.0626 3.65313C20.4462 3.30411 20.725 2.75598 20.725 2.09971C20.725 1.44343 20.4462 0.895306 20.0626 0.546278L19.0368 2.346ZM18.6257 2.346C18.6481 2.32568 18.7195 2.28431 18.8313 2.28431C18.943 2.28431 19.0144 2.32568 19.0368 2.346L20.0626 0.546277C19.6881 0.205644 19.2395 0.0665417 18.8313 0.0665413C18.423 0.0665407 17.9744 0.205646 17.6 0.546279L18.6257 2.346ZM2.10231 17.378L18.6257 2.346L17.6 0.546279L1.07653 15.5783L2.10231 17.378Z" fill="white" mask="url(#path-1-outside-1_216_938)"/>
</svg>
