<svg width="22" height="35" viewBox="0 0 22 35" fill="none" xmlns="http://www.w3.org/2000/svg">
<mask id="path-1-outside-1_216_937" maskUnits="userSpaceOnUse" x="-11.7656" y="-4.43469" width="34.0752" height="43.1152" fill="black">
<rect fill="white" x="-11.7656" y="-4.43469" width="34.0752" height="43.1152"/>
<path fill-rule="evenodd" clip-rule="evenodd" d="M20.4502 18.8212C20.4831 18.7993 20.5149 18.7752 20.5453 18.749C20.9255 18.422 20.9535 17.8811 20.6078 17.541L4.4641 1.6559C4.11843 1.31577 3.53003 1.30518 3.14987 1.63224C2.76971 1.95931 2.74175 2.50017 3.08741 2.8403L18.3696 17.8776L2.06529 31.5657C1.61162 31.9465 1.57871 32.5767 1.99179 32.9732C2.40487 33.3697 3.10751 33.3824 3.56119 33.0015L20.4125 18.8542C20.4254 18.8434 20.438 18.8324 20.4502 18.8212Z"/>
</mask>
<path fill-rule="evenodd" clip-rule="evenodd" d="M20.4502 18.8212C20.4831 18.7993 20.5149 18.7752 20.5453 18.749C20.9255 18.422 20.9535 17.8811 20.6078 17.541L4.4641 1.6559C4.11843 1.31577 3.53003 1.30518 3.14987 1.63224C2.76971 1.95931 2.74175 2.50017 3.08741 2.8403L18.3696 17.8776L2.06529 31.5657C1.61162 31.9465 1.57871 32.5767 1.99179 32.9732C2.40487 33.3697 3.10751 33.3824 3.56119 33.0015L20.4125 18.8542C20.4254 18.8434 20.438 18.8324 20.4502 18.8212Z" fill="#4E4E4E"/>
<path d="M20.5453 18.749L20.0603 17.8368L20.0603 17.8368L20.5453 18.749ZM20.4502 18.8212L20.0527 17.8424L19.9951 17.8807L19.9425 17.929L20.4502 18.8212ZM20.6078 17.541L21.1558 16.6617L20.6078 17.541ZM4.4641 1.6559L3.91607 2.53513L4.4641 1.6559ZM3.08741 2.8403L3.63544 1.96107L3.08741 2.8403ZM18.3696 17.8776L18.8461 18.7971L19.8711 17.9366L18.9176 16.9984L18.3696 17.8776ZM2.06529 31.5657L2.54183 32.4851L2.06529 31.5657ZM1.99179 32.9732L1.45187 33.8603L1.45188 33.8603L1.99179 32.9732ZM3.56119 33.0015L4.03772 33.921L3.56119 33.0015ZM20.4125 18.8542L20.889 19.7737L20.889 19.7737L20.4125 18.8542ZM20.0603 17.8368C20.0591 17.8378 20.0566 17.8398 20.0527 17.8424L20.8477 19.7999C20.9095 19.7587 20.9706 19.7127 21.0304 19.6613L20.0603 17.8368ZM20.0598 18.4202C20.0448 18.4054 19.9622 18.2975 19.9725 18.0988C19.9823 17.9082 20.0671 17.8309 20.0603 17.8368L21.0304 19.6613C21.4037 19.3401 21.6926 18.8288 21.725 18.201C21.7579 17.565 21.5165 17.0166 21.1558 16.6617L20.0598 18.4202ZM3.91607 2.53513L20.0598 18.4202L21.1558 16.6617L5.01212 0.776677L3.91607 2.53513ZM3.63488 2.54451C3.64854 2.53276 3.70375 2.50074 3.79064 2.50231C3.8789 2.5039 3.91914 2.53816 3.91607 2.53513L5.01212 0.776677C4.66338 0.433522 4.2366 0.29242 3.8492 0.285446C3.46044 0.278446 3.03137 0.404668 2.66486 0.719981L3.63488 2.54451ZM3.63544 1.96107C3.65045 1.97583 3.73301 2.08375 3.72273 2.28251C3.71288 2.47308 3.62807 2.55037 3.63488 2.54451L2.66486 0.719981C2.29152 1.04118 2.00265 1.55243 1.97019 2.18023C1.93731 2.81622 2.17872 3.36463 2.53939 3.71952L3.63544 1.96107ZM18.9176 16.9984L3.63544 1.96107L2.53939 3.71952L17.8215 18.7568L18.9176 16.9984ZM2.54183 32.4851L18.8461 18.7971L17.893 16.9582L1.58876 30.6462L2.54183 32.4851ZM2.5317 32.0861C2.51952 32.0744 2.53448 32.0842 2.55192 32.1282C2.57018 32.1742 2.58368 32.24 2.57974 32.3154C2.57108 32.4813 2.49686 32.5229 2.54183 32.4851L1.58876 30.6462C1.18006 30.9893 0.862541 31.5364 0.827275 32.2117C0.791528 32.8962 1.05809 33.4824 1.45187 33.8603L2.5317 32.0861ZM3.08465 32.0821C3.03336 32.1251 2.92809 32.1729 2.79056 32.1705C2.65158 32.168 2.56288 32.116 2.5317 32.0861L1.45188 33.8603C1.83377 34.2269 2.30294 34.3796 2.73197 34.3873C3.16245 34.3951 3.63534 34.2588 4.03772 33.921L3.08465 32.0821ZM19.936 17.9348L3.08465 32.0821L4.03772 33.921L20.889 19.7737L19.936 17.9348ZM19.9425 17.929C19.9407 17.9307 19.9385 17.9326 19.936 17.9348L20.889 19.7737C20.9123 19.7542 20.9353 19.734 20.9579 19.7133L19.9425 17.929Z" fill="white" mask="url(#path-1-outside-1_216_937)"/>
</svg>
